<?xml version="1.0" encoding="UTF-8"?>
<svg id="Capa_4" xmlns="http://www.w3.org/2000/svg" viewBox="0 0 64 64">
    <defs>
        <style>
            .cls-1 {
                fill: #f3c389;
            }

            .cls-2 {
                fill: #dac8ae;
            }

            .cls-3 {
                fill: #b09f8c;
            }
        </style>
    </defs>
    <ellipse class="cls-3" cx="19.29" cy="26.9" rx="22.8" ry="15.72" transform="translate(-13.76 25) rotate(-51.07)" />
    <ellipse class="cls-3" cx="47.25" cy="49.24" rx="17.34" ry="11.48"
        transform="translate(-20.6 41.94) rotate(-40.04)" />
    <ellipse class="cls-3" cx="51.44" cy="14.52" rx="9.98" ry="14.22" transform="translate(-.37 27.67) rotate(-30)" />
    <path class="cls-1"
        d="m5.3,43.8l-1.86-.14c.01-.18.36-4.47,2.46-8.81,2.85-5.89,7.55-9,13.59-9,5.3,0,9.08-2.82,11.24-8.39,1.67-4.31,1.7-8.7,1.7-8.74h1.87c0,.2-.03,4.75-1.81,9.37-2.43,6.3-6.92,9.63-13,9.63-5.35,0-9.35,2.67-11.9,7.95-1.95,4.03-2.27,8.1-2.28,8.14Z" />
    <path class="cls-2"
        d="m12.85,48.11c-2.96,0-5.64-.85-7.82-2.53C1.5,42.87-.28,38.34.04,32.82c.31-5.38,2.58-11.09,6.4-16.06s8.74-8.64,13.86-10.33c5.25-1.73,10.09-1.18,13.62,1.53s5.31,7.25,5,12.77c-.31,5.38-2.58,11.09-6.4,16.06-3.82,4.97-8.74,8.64-13.86,10.33-2.01.66-3.96.99-5.8.99ZM26.09,7.32c-1.64,0-3.39.3-5.21.89-4.77,1.57-9.37,5.01-12.96,9.69C.58,27.45-.2,39.21,6.17,44.1c6.37,4.89,17.53,1.1,24.86-8.45h0c3.59-4.68,5.73-10.01,6.02-15.03.28-4.88-1.24-8.85-4.27-11.18-1.85-1.42-4.13-2.14-6.69-2.14Z" />
    <path class="cls-1"
        d="m57.8,28.2c-.11-.05-2.67-1.25-4.86-3.54-3.02-3.16-3.87-6.83-2.45-10.62,1.11-2.98.3-5.7-2.4-8.1-2.14-1.9-4.66-2.85-4.68-2.86l.75-1.99c.12.04,2.91,1.11,5.34,3.26,3.38,3,4.42,6.61,2.99,10.44-1.12,3-.46,5.82,1.96,8.37,1.91,2.02,4.24,3.11,4.26,3.12l-.89,1.93Z" />
    <path class="cls-2"
        d="m45.01,2.62c-.23.11-.46.23-.67.36-1.94,1.21-3.07,3.5-3.18,6.46-.12,3.11.88,6.54,2.83,9.65,1.95,3.12,4.59,5.52,7.44,6.77,2.71,1.19,5.27,1.18,7.2-.03,4.13-2.58,4.29-9.81.35-16.12h0c-3.73-5.97-9.82-9-13.97-7.11Zm13.82,25.53c-2.39,1.09-5.29.99-8.27-.33-3.24-1.42-6.21-4.12-8.38-7.59-2.17-3.47-3.29-7.33-3.15-10.86.14-3.68,1.63-6.59,4.18-8.18,2.55-1.59,5.81-1.65,9.19-.17,3.24,1.42,6.21,4.12,8.38,7.59h0c2.17,3.47,3.29,7.33,3.15,10.86-.14,3.68-1.63,6.59-4.18,8.18-.3.19-.61.35-.92.5Z" />
    <path class="cls-1"
        d="m33.86,59.08l-2.38-.81c.05-.14,1.2-3.49,3.65-6.45,3.41-4.12,7.64-5.48,12.23-3.94,3.59,1.21,6.9.32,9.82-2.64,2.31-2.34,3.51-5.13,3.52-5.16l2.32.98c-.05.13-1.37,3.21-4,5.89-3.62,3.69-7.93,4.84-12.47,3.31-3.57-1.2-6.76-.14-9.49,3.16-2.16,2.61-3.19,5.62-3.2,5.65Z" />
    <path class="cls-2"
        d="m52.35,36.66c-3.49,0-7.52,1.25-11.23,3.74-7.3,4.9-10.62,12.79-7.41,17.58,1.51,2.24,4.26,3.49,7.77,3.51.03,0,.06,0,.09,0,3.66,0,7.63-1.32,11.21-3.72,7.3-4.9,10.62-12.79,7.41-17.58-1.58-2.36-4.46-3.53-7.84-3.53Zm-10.78,27.34s-.07,0-.11,0c-4.36-.03-7.86-1.67-9.84-4.62s-2.18-6.81-.56-10.86c1.56-3.88,4.63-7.51,8.65-10.21,3.99-2.68,8.46-4.15,12.61-4.15.04,0,.07,0,.11,0,4.36.03,7.86,1.67,9.84,4.62s2.18,6.81.56,10.86c-1.56,3.88-4.63,7.51-8.65,10.21-3.99,2.68-8.46,4.15-12.61,4.15Z" />
</svg>